<?xml version="1.0" encoding="UTF-8" standalone="no"?>
<!DOCTYPE svg PUBLIC "-//W3C//DTD SVG 1.1//EN" "http://www.w3.org/Graphics/SVG/1.1/DTD/svg11.dtd">
<svg width="100%" height="100%" viewBox="0 0 150 150" version="1.1" xmlns="http://www.w3.org/2000/svg" xmlns:xlink="http://www.w3.org/1999/xlink" xml:space="preserve" xmlns:serif="http://www.serif.com/" style="fill-rule:evenodd;clip-rule:evenodd;stroke-linecap:round;stroke-linejoin:round;stroke-miterlimit:1.5;">
    <g transform="matrix(3.16135,0,0,3.16135,75,75)">
        <g transform="matrix(1,0,0,1,-12,-12)">
            <clipPath id="_clip1">
                <rect x="0" y="0" width="24" height="24"/>
            </clipPath>
            <g clip-path="url(#_clip1)">
                <path d="M13.001,24.022L11.001,24.022L11,5.022L12.016,6.022L13,5.022L13.001,24.022ZM10.221,15.635C8.643,15.125 7.079,15.403 6.113,16.264C4.594,17.618 4.893,19.88 4.893,19.88C4.893,19.88 7.473,20.629 9.002,19.266C10.46,17.966 10.221,15.809 10.221,15.635ZM13.766,15.635C15.344,15.125 16.908,15.403 17.874,16.264C19.393,17.618 19.095,19.88 19.095,19.88C19.095,19.88 16.515,20.629 14.986,19.266C13.527,17.966 13.767,15.809 13.766,15.635ZM18.072,14.487C19.222,13.518 20.631,13.216 21.736,13.608C23.475,14.224 24,16.225 24,16.225C24,16.225 22.09,17.738 20.34,17.118C18.671,16.526 18.132,14.633 18.072,14.487ZM5.928,14.487C4.778,13.518 3.369,13.216 2.264,13.608C0.525,14.224 -0,16.225 -0,16.225C-0,16.225 1.91,17.738 3.66,17.118C5.329,16.526 5.868,14.633 5.928,14.487ZM10.162,14.452C10.415,13.055 10,11.759 9.159,11.038C7.837,9.904 5.952,10.415 5.952,10.415C5.952,10.415 5.611,12.689 6.942,13.831C8.211,14.92 10.014,14.471 10.162,14.452ZM13.838,14.452C13.585,13.055 14,11.759 14.841,11.038C16.163,9.904 18.048,10.415 18.048,10.415C18.048,10.415 18.389,12.689 17.058,13.831C15.789,14.92 13.986,14.471 13.838,14.452ZM18.377,12.105C18.797,10.895 19.697,10.06 20.677,9.865C22.219,9.559 23.475,10.795 23.475,10.795C23.475,10.795 22.735,12.735 21.184,13.043C19.703,13.338 18.485,12.186 18.377,12.105ZM5.623,12.105C5.203,10.895 4.303,10.06 3.323,9.865C1.781,9.559 0.525,10.795 0.525,10.795C0.525,10.795 1.265,12.735 2.816,13.043C4.297,13.338 5.515,12.186 5.623,12.105ZM13.579,9.743C13.555,8.423 14.13,7.296 15.009,6.76C16.391,5.917 18.045,6.667 18.045,6.667C18.045,6.667 18.018,8.806 16.626,9.654C15.299,10.464 13.711,9.782 13.579,9.743ZM10.421,9.743C10.445,8.423 9.87,7.296 8.991,6.76C7.609,5.917 5.955,6.667 5.955,6.667C5.955,6.667 5.982,8.806 7.374,9.654C8.701,10.464 10.289,9.782 10.421,9.743ZM5.633,9.243C5.708,8.078 5.247,7.059 4.493,6.549C3.306,5.747 1.815,6.342 1.815,6.342C1.815,6.342 1.75,8.232 2.944,9.039C4.084,9.809 5.514,9.272 5.633,9.243ZM18.367,9.243C18.292,8.078 18.753,7.059 19.507,6.549C20.694,5.747 22.185,6.342 22.185,6.342C22.185,6.342 22.25,8.232 21.056,9.039C19.916,9.809 18.486,9.272 18.367,9.243ZM14.209,6.288C13.64,5.184 13.656,3.995 14.175,3.177C14.991,1.89 16.699,1.836 16.699,1.836C16.699,1.836 17.565,3.651 16.744,4.946C15.96,6.182 14.337,6.267 14.209,6.288ZM9.791,6.288C10.36,5.184 10.344,3.995 9.825,3.177C9.009,1.89 7.301,1.836 7.301,1.836C7.301,1.836 6.435,3.651 7.256,4.946C8.04,6.182 9.663,6.267 9.791,6.288ZM6.799,5.996C6.862,5.015 6.474,4.158 5.839,3.728C4.841,3.053 3.585,3.554 3.585,3.554C3.585,3.554 3.531,5.145 4.536,5.824C5.495,6.472 6.699,6.021 6.799,5.996ZM17.201,5.996C17.138,5.015 17.526,4.158 18.161,3.728C19.159,3.053 20.415,3.554 20.415,3.554C20.415,3.554 20.469,5.145 19.464,5.824C18.505,6.472 17.301,6.021 17.201,5.996ZM12.039,4.939C11.044,4.272 10.501,3.26 10.557,2.327C10.645,0.86 12.061,0.017 12.061,0.017C12.061,0.017 13.641,1.145 13.553,2.622C13.468,4.03 12.138,4.86 12.039,4.939Z" style="fill:white;"/>
            </g>
        </g>
    </g>
    <g transform="matrix(1.387,0,0,1.1303,-18.7483,1.00825)">
        <ellipse cx="67.591" cy="65.462" rx="41.466" ry="50.874" style="fill:none;stroke:rgb(242,202,108);stroke-width:1.58px;"/>
    </g>
</svg>
